<?xml version='1.0' encoding='utf-8'?>
<svg xmlns="http://www.w3.org/2000/svg" width="256" height="256" viewBox="0 0 256 256">

  <defs>
    <radialGradient id="halo" cx="50%" cy="50%" r="70%">
      <stop offset="0%" stop-color="#BFC5CC" stop-opacity="0.08" />
      <stop offset="100%" stop-color="#BFC5CC" stop-opacity="0" />
    </radialGradient>

    <linearGradient id="innerRing" x1="30%" y1="20%" x2="80%" y2="80%">
      <stop offset="0%" stop-color="#BFC5CC" stop-opacity="0.85" />
      <stop offset="100%" stop-color="#5F6770" stop-opacity="0.45" />
    </linearGradient>

    <linearGradient id="outerRing" x1="30%" y1="20%" x2="80%" y2="80%">
      <stop offset="0%" stop-color="#BFC5CC" stop-opacity="0.6" />
      <stop offset="100%" stop-color="#5F6770" stop-opacity="0.35" />
    </linearGradient>

    <linearGradient id="gold" x1="0%" y1="0%" x2="100%" y2="100%">
      <stop offset="0%" stop-color="#FFE9BF" />
      <stop offset="55%" stop-color="#D6A84B" />
      <stop offset="100%" stop-color="#8A6A2A" />
    </linearGradient>

    <radialGradient id="glow" cx="50%" cy="45%" r="60%">
      <stop offset="0%" stop-color="#9fd6f5" stop-opacity="0.55" />
      <stop offset="100%" stop-color="#9fd6f5" stop-opacity="0" />
    </radialGradient>

    <radialGradient id="specTop" cx="48%" cy="30%" r="45%">
      <stop offset="0%" stop-color="#ffffff" stop-opacity="0.4" />
      <stop offset="100%" stop-color="#ffffff" stop-opacity="0" />
    </radialGradient>

    <filter id="softShadow" x="-40%" y="-40%" width="180%" height="180%">
      <feDropShadow dx="0" dy="6" stdDeviation="6" flood-color="#000000" flood-opacity="0.32" />
    </filter>
  </defs>

  
  <circle cx="128" cy="128" r="100" fill="url(#halo)" />
  <circle cx="128" cy="128" r="82" fill="none" stroke="url(#innerRing)" stroke-width="14" />
  <circle cx="128" cy="128" r="119" fill="none" stroke="url(#outerRing)" stroke-width="8" />

  
  <circle cx="128" cy="128" r="72" fill="url(#glow)" />

  
  <g filter="url(#softShadow)" id="simbolo">
    <g transform="translate(75.2,75.2) scale(4.4)">
      <path d="M9.32,5.53 L10.05,2.19 L13.95,2.19 L14.68,5.53 L14.68,5.53 L17.56,3.69 L20.31,6.44 L18.47,9.32 L18.47,9.32 L21.81,10.05 L21.81,13.95 L18.47,14.68 L18.47,14.68 L20.31,17.56 L17.56,20.31 L14.68,18.47 L14.68,18.47 L13.95,21.81 L10.05,21.81 L9.32,18.47 L9.32,18.47 L6.44,20.31 L3.69,17.56 L5.53,14.68 L5.53,14.68 L2.19,13.95 L2.19,10.05 L5.53,9.32 L5.53,9.32 L3.69,6.44 L6.44,3.69 L9.32,5.53 Z M15.20,12.00 A3.2,3.2 0 1,0 8.80,12.00 A3.2,3.2 0 1,0 15.20,12.00 Z" fill="url(#gold)" fill-rule="evenodd" stroke="none" />
    </g>
  </g>

  
  <circle cx="128" cy="92" r="56" fill="url(#specTop)" opacity="0.9" />
</svg>